<svg width="19" height="19" viewBox="0 0 19 19" fill="none" xmlns="http://www.w3.org/2000/svg">
<path d="M16.9805 0.990224C16.9432 0.991401 16.906 0.994662 16.8691 0.999989H12C11.8675 0.998115 11.7359 1.0226 11.613 1.07201C11.49 1.12142 11.3781 1.19478 11.2837 1.28783C11.1893 1.38087 11.1144 1.49175 11.0632 1.614C11.0121 1.73626 10.9858 1.86746 10.9858 1.99999C10.9858 2.13251 11.0121 2.26372 11.0632 2.38598C11.1144 2.50823 11.1893 2.61911 11.2837 2.71215C11.3781 2.80519 11.49 2.87855 11.613 2.92797C11.7359 2.97738 11.8675 3.00186 12 2.99999H14.5859L5.29297 12.293C5.197 12.3851 5.12037 12.4955 5.06759 12.6176C5.0148 12.7397 4.98692 12.8712 4.98556 13.0042C4.98421 13.1372 5.00942 13.2692 5.0597 13.3924C5.10999 13.5156 5.18436 13.6275 5.27843 13.7216C5.37251 13.8156 5.48442 13.89 5.6076 13.9403C5.73077 13.9906 5.86275 14.0158 5.99579 14.0144C6.12883 14.0131 6.26026 13.9852 6.38239 13.9324C6.50452 13.8796 6.61489 13.803 6.70703 13.707L16 4.41405V6.99999C15.9981 7.1325 16.0226 7.26406 16.072 7.38703C16.1214 7.51 16.1948 7.62192 16.2878 7.71629C16.3809 7.81066 16.4918 7.8856 16.614 7.93674C16.7363 7.98789 16.8675 8.01423 17 8.01423C17.1325 8.01423 17.2637 7.98789 17.386 7.93674C17.5082 7.8856 17.6191 7.81066 17.7122 7.71629C17.8052 7.62192 17.8786 7.51 17.928 7.38703C17.9774 7.26406 18.0019 7.1325 18 6.99999V2.12694C18.0199 1.98297 18.0082 1.83638 17.9657 1.69739C17.9232 1.5584 17.8509 1.43035 17.7538 1.32215C17.6568 1.21395 17.5373 1.1282 17.4038 1.07088C17.2702 1.01355 17.1258 0.986029 16.9805 0.990224ZM2 0.999989C0.906937 0.999989 0 1.90693 0 2.99999V17C0 18.0931 0.906937 19 2 19H16C17.0931 19 18 18.0931 18 17V11C18.0019 10.8675 17.9774 10.7359 17.928 10.6129C17.8786 10.49 17.8052 10.3781 17.7122 10.2837C17.6191 10.1893 17.5082 10.1144 17.386 10.0632C17.2637 10.0121 17.1325 9.98575 17 9.98575C16.8675 9.98575 16.7363 10.0121 16.614 10.0632C16.4918 10.1144 16.3809 10.1893 16.2878 10.2837C16.1948 10.3781 16.1214 10.49 16.072 10.6129C16.0226 10.7359 15.9981 10.8675 16 11V17H2V2.99999H8C8.13251 3.00186 8.26407 2.97738 8.38704 2.92797C8.51001 2.87855 8.62193 2.80519 8.7163 2.71215C8.81067 2.61911 8.88561 2.50823 8.93676 2.38598C8.9879 2.26372 9.01424 2.13251 9.01424 1.99999C9.01424 1.86746 8.9879 1.73626 8.93676 1.614C8.88561 1.49175 8.81067 1.38087 8.7163 1.28783C8.62193 1.19478 8.51001 1.12142 8.38704 1.07201C8.26407 1.0226 8.13251 0.998115 8 0.999989H2Z" fill="#343434"/>
</svg>
